<?xml version="1.0" encoding="utf-8"?>
<!-- Generator: Adobe Illustrator 19.2.1, SVG Export Plug-In . SVG Version: 6.00 Build 0)  -->
<svg version="1.1" id="Слой_1" xmlns="http://www.w3.org/2000/svg" xmlns:xlink="http://www.w3.org/1999/xlink" x="0px" y="0px"
	 viewBox="0 0 375.3 182.8" style="enable-background:new 0 0 375.3 182.8;" xml:space="preserve">
<g>
	<rect x="83.8" y="51.2" transform="matrix(0.4997 -0.8662 0.8662 0.4997 -21.5505 110.6421)" width="2.4" height="45.6"/>
	<rect x="24.5" y="85.4" width="2.4" height="45.6"/>
	<path d="M153.2,68.3l-0.7-2.3l-37.2,12.1L65.8,49.6l0,0l-0.6-0.3l-0.6,0.3l0,0l0,0l-1.7,1l0,0L16.5,77.4l0,0l-2.3,1.3v0.7v2V135v2
		v0.7l2.3,1.3l0,0l46.4,26.8l0,0l1.7,1l0,0l0,0l0.6,0.3l0.6-0.3l0,0l49.4-28.5l37.2,12.1l0.7-2.3l-36.9-12V80.3L153.2,68.3z
		 M16.6,81.4v-1.3L65.2,52l1.1,0.7l0,0l47.6,27.5v56.2l-47.6,27.5l0,0l-1.1,0.7l-48.7-28.1V135V81.4z"/>
	<rect x="62.2" y="141.2" transform="matrix(0.8658 -0.5004 0.5004 0.8658 -59.8696 61.6582)" width="45.6" height="2.4"/>
	<rect x="170.5" y="116.7" transform="matrix(0.5875 -0.8092 0.8092 0.5875 -19.4989 197.461)" width="26.9" height="2.4"/>
	<polygon points="295,63.9 295,63.9 295.7,63 333.3,75.2 334.1,73 297.5,61.1 297.5,61.1 295.6,60.5 295.6,60.5 295.6,60.5 
		294.7,60.2 294.2,60.9 294.2,60.9 260.8,107 204.4,107 184.7,79.9 182.8,81.3 202.3,108.2 183.4,134.1 185.4,135.5 204.4,109.4 
		260.8,109.4 279.7,135.5 281.7,134.1 262.9,108.2 	"/>
	<rect x="263.8" y="89.8" transform="matrix(0.588 -0.8089 0.8089 0.588 44.4998 269.361)" width="45.6" height="2.4"/>
	<polygon points="348.8,135 348.8,136.1 347.7,136.5 347.7,136.5 311.9,148.1 312.7,150.4 350.4,138.2 351.2,137.9 351.2,137 
		351.2,135 351.2,100.4 348.8,100.4 	"/>
	<rect x="308.3" y="133" transform="matrix(0.951 -0.3091 0.3091 0.951 -25.5667 107.056)" width="33.6" height="2.4"/>
	<polygon points="162.5,53.1 162.6,53.1 177,75.5 180.9,75.5 180.9,46.8 177.3,46.8 177.3,69.1 177.2,69.1 162.8,46.8 158.9,46.8 
		158.9,75.5 162.5,75.5 	"/>
	<polygon points="162.9,29.3 176.9,29.3 176.9,42.8 180.7,42.8 180.7,14.2 176.9,14.2 176.9,25.9 162.9,25.9 162.9,14.2 159,14.2 
		159,42.8 162.9,42.8 	"/>
	<polygon points="177.3,162.3 177.2,162.3 162.8,140 158.9,140 158.9,168.7 162.5,168.7 162.5,146.3 162.6,146.3 177,168.7 
		180.9,168.7 180.9,140 177.3,140 	"/>
	<path d="M360.1,81.4c-1-1.6-3.3-2.7-3.3-2.7c-2.2-1.1-6.1-2-6.1-2c-2.8-0.6-4.3-1.2-4.3-1.2c-1.5-0.5-2.2-1.4-2.2-1.4
		c-0.7-0.8-0.7-2.2-0.7-2.2c0-1.4,0.8-2.4,0.8-2.4c0.8-1,2.2-1.6,2.2-1.6c1.4-0.5,3.3-0.5,3.3-0.5c2.8,0,4.5,1.3,4.5,1.3
		c1.6,1.4,2.2,4.5,2.2,4.5h0.1l3.7-0.8c-0.4-2.6-1.7-4.4-1.7-4.4c-1.4-1.9-3.6-2.8-3.6-2.8c-2.3-1-5.2-1-5.2-1c-2.8,0-5.1,1-5.1,1
		c-2.2,1-3.5,2.7-3.5,2.7c-1.3,1.8-1.3,3.9-1.3,3.9c0,2,0.6,3.4,0.6,3.4c0.7,1.4,2.3,2.6,2.3,2.6c1.7,1.1,4.7,1.9,4.7,1.9
		c0.7,0.2,2.3,0.6,2.3,0.6c2.7,0.7,4.2,1.2,4.2,1.2c1.7,0.6,2.6,1.6,2.6,1.6c0.9,1,0.9,2.8,0.9,2.8c0,1.3-0.9,2.4-0.9,2.4
		c-0.9,1.1-2.5,1.7-2.5,1.7c-1.6,0.6-3.4,0.6-3.4,0.6c-3.6,0-5.6-1.8-5.6-1.8c-2-1.8-2.4-5.3-2.4-5.3l-3.7,0.8c0.6,4.6,3.7,7,3.7,7
		c3.1,2.4,8.2,2.4,8.2,2.4c3,0,5.4-1.1,5.4-1.1c2.4-1.1,3.7-3.1,3.7-3.1c1.4-2,1.4-4.4,1.4-4.4C361.2,83,360.1,81.4,360.1,81.4z"/>
	<polygon points="302.6,162.3 302.5,162.3 288.1,140 284.2,140 284.2,168.7 287.8,168.7 287.8,146.3 287.9,146.3 302.3,168.7 
		306.2,168.7 306.2,140 302.6,140 	"/>
</g>
</svg>
